<svg width="80" height="80" viewBox="0 0 80 80" fill="none" xmlns="http://www.w3.org/2000/svg">
<path d="M0 40C0 17.9086 17.9086 0 40 0V0C62.0914 0 80 17.9086 80 40V40C80 62.0914 62.0914 80 40 80V80C17.9086 80 0 62.0914 0 40V40Z" fill="#DBEAFE"/>
<path d="M40 70C56.5685 70 70 56.5685 70 40C70 23.4315 56.5685 10 40 10C23.4315 10 10 23.4315 10 40C10 56.5685 23.4315 70 40 70Z" fill="#FEF3C7"/>
<path d="M33 38C34.1046 38 35 37.1046 35 36C35 34.8954 34.1046 34 33 34C31.8954 34 31 34.8954 31 36C31 37.1046 31.8954 38 33 38Z" fill="#111827"/>
<path d="M47 38C48.1046 38 49 37.1046 49 36C49 34.8954 48.1046 34 47 34C45.8954 34 45 34.8954 45 36C45 37.1046 45.8954 38 47 38Z" fill="#111827"/>
<path d="M36 43C38 45 42 45 44 43" stroke="#111827" stroke-width="2" stroke-linecap="round"/>
<path d="M38 41C38.5523 41 39 40.5523 39 40C39 39.4477 38.5523 39 38 39C37.4477 39 37 39.4477 37 40C37 40.5523 37.4477 41 38 41Z" fill="#EF4444"/>
<path d="M42 41C42.5523 41 43 40.5523 43 40C43 39.4477 42.5523 39 42 39C41.4477 39 41 39.4477 41 40C41 40.5523 41.4477 41 42 41Z" fill="#EF4444"/>
</svg>
