<svg width="80" height="80" viewBox="0 0 80 80" fill="none" xmlns="http://www.w3.org/2000/svg">
<path d="M40 1C61.5391 1 79 18.4609 79 40C79 61.5391 61.5391 79 40 79C18.4609 79 1 61.5391 1 40C1 18.4609 18.4609 1 40 1Z" fill="#F1F5F9"/>
<path d="M40 1C61.5391 1 79 18.4609 79 40C79 61.5391 61.5391 79 40 79C18.4609 79 1 61.5391 1 40C1 18.4609 18.4609 1 40 1Z" stroke="#E2E8F0" stroke-width="2"/>
<path d="M56 56H24V24H56V56Z" stroke="#6B7280"/>
<path d="M49.3332 52V49.3333C49.3332 47.9188 48.7713 46.5623 47.7711 45.5621C46.7709 44.5619 45.4143 44 43.9998 44H35.9998C34.5853 44 33.2288 44.5619 32.2286 45.5621C31.2284 46.5623 30.6665 47.9188 30.6665 49.3333V52" stroke="#6B7280" stroke-width="2.66667" stroke-linecap="round" stroke-linejoin="round"/>
<path d="M39.9998 38.6667C42.9454 38.6667 45.3332 36.2789 45.3332 33.3333C45.3332 30.3878 42.9454 28 39.9998 28C37.0543 28 34.6665 30.3878 34.6665 33.3333C34.6665 36.2789 37.0543 38.6667 39.9998 38.6667Z" stroke="#6B7280" stroke-width="2.66667" stroke-linecap="round" stroke-linejoin="round"/>
</svg>
