<svg width="80" height="80" viewBox="0 0 80 80" fill="none" xmlns="http://www.w3.org/2000/svg">
<path d="M0 40C0 17.9086 17.9086 0 40 0V0C62.0914 0 80 17.9086 80 40V40C80 62.0914 62.0914 80 40 80V80C17.9086 80 0 62.0914 0 40V40Z" fill="#FEF3C7"/>
<path d="M40 68C55.464 68 68 56.8071 68 43C68 29.1929 55.464 18 40 18C24.536 18 12 29.1929 12 43C12 56.8071 24.536 68 40 68Z" fill="#D97706"/>
<path d="M28 40C32.4183 40 36 34.6274 36 28C36 21.3726 32.4183 16 28 16C23.5817 16 20 21.3726 20 28C20 34.6274 23.5817 40 28 40Z" fill="#D97706"/>
<path d="M52 40C56.4183 40 60 34.6274 60 28C60 21.3726 56.4183 16 52 16C47.5817 16 44 21.3726 44 28C44 34.6274 47.5817 40 52 40Z" fill="#D97706"/>
<path d="M27.5 26C29.433 26 31 23.9853 31 21.5C31 19.0147 29.433 17 27.5 17C25.567 17 24 19.0147 24 21.5C24 23.9853 25.567 26 27.5 26Z" fill="#92400E"/>
<path d="M51.5 26C53.433 26 55 23.9853 55 21.5C55 19.0147 53.433 17 51.5 17C49.567 17 48 19.0147 48 21.5C48 23.9853 49.567 26 51.5 26Z" fill="#92400E"/>
<path d="M33 43C34.6569 43 36 41.6569 36 40C36 38.3431 34.6569 37 33 37C31.3431 37 30 38.3431 30 40C30 41.6569 31.3431 43 33 43Z" fill="#111827"/>
<path d="M47 43C48.6569 43 50 41.6569 50 40C50 38.3431 48.6569 37 47 37C45.3431 37 44 38.3431 44 40C44 41.6569 45.3431 43 47 43Z" fill="#111827"/>
<path d="M40 51C42.2091 51 44 49.6569 44 48C44 46.3431 42.2091 45 40 45C37.7909 45 36 46.3431 36 48C36 49.6569 37.7909 51 40 51Z" fill="#111827"/>
<path d="M40 51V56" stroke="#111827" stroke-width="2" stroke-linecap="round"/>
<path d="M36 55C38 57 42 57 44 55" stroke="#111827" stroke-width="2" stroke-linecap="round"/>
<path d="M28 53C30 55 34 55 36 53" stroke="#D97706" stroke-width="2" stroke-linecap="round"/>
<path d="M44 53C46 55 50 55 52 53" stroke="#D97706" stroke-width="2" stroke-linecap="round"/>
</svg>
