<svg width="16" height="16" viewBox="0 0 16 16" fill="none" xmlns="http://www.w3.org/2000/svg">
<path d="M8 4.66666V14" stroke="currentColor" stroke-width="1.33333" stroke-linecap="round" stroke-linejoin="round"/>
<path d="M1.99992 12C1.82311 12 1.65354 11.9298 1.52851 11.8047C1.40349 11.6797 1.33325 11.5101 1.33325 11.3333V2.66667C1.33325 2.48986 1.40349 2.32029 1.52851 2.19526C1.65354 2.07024 1.82311 2 1.99992 2H5.33325C6.0405 2 6.71877 2.28095 7.21887 2.78105C7.71897 3.28115 7.99992 3.95942 7.99992 4.66667C7.99992 3.95942 8.28087 3.28115 8.78097 2.78105C9.28106 2.28095 9.95934 2 10.6666 2H13.9999C14.1767 2 14.3463 2.07024 14.4713 2.19526C14.5963 2.32029 14.6666 2.48986 14.6666 2.66667V11.3333C14.6666 11.5101 14.5963 11.6797 14.4713 11.8047C14.3463 11.9298 14.1767 12 13.9999 12H9.99992C9.46949 12 8.96078 12.2107 8.5857 12.5858C8.21063 12.9609 7.99992 13.4696 7.99992 14C7.99992 13.4696 7.7892 12.9609 7.41413 12.5858C7.03906 12.2107 6.53035 12 5.99992 12H1.99992Z" stroke="currentColor" stroke-width="1.33333" stroke-linecap="round" stroke-linejoin="round"/>
</svg>
