<svg width="24" height="24" viewBox="0 0 24 24" fill="none" xmlns="http://www.w3.org/2000/svg">
<path d="M12 14L11 15" stroke="currentColor" stroke-width="2" stroke-linecap="round" stroke-linejoin="round"/>
<path d="M13.75 18.25L12.5 19.67" stroke="currentColor" stroke-width="2" stroke-linecap="round" stroke-linejoin="round"/>
<path d="M17.7748 5.65399C14.7961 6.27977 12.0639 7.75897 9.91159 9.91112C7.75926 12.0633 6.27984 14.7953 5.65381 17.774" stroke="currentColor" stroke-width="2" stroke-linecap="round" stroke-linejoin="round"/>
<path d="M18.8 9.29999C17.7789 9.57847 16.9103 10.2512 16.3852 11.1701C15.8601 12.089 15.7215 13.1789 16 14.2C16.2785 15.2211 16.9512 16.0897 17.8701 16.6148C18.789 17.1399 19.8789 17.2785 20.9 17" stroke="currentColor" stroke-width="2" stroke-linecap="round" stroke-linejoin="round"/>
<path d="M21.9638 20.732C22.0114 20.9028 22.0128 21.0831 21.9678 21.2546C21.9228 21.4261 21.833 21.5826 21.7077 21.7079C21.5823 21.8333 21.4259 21.9231 21.2544 21.9681C21.0829 22.0131 20.9025 22.0117 20.7318 21.964L2.73176 16.964C2.60522 16.9288 2.48686 16.8689 2.38344 16.788C2.28002 16.707 2.19357 16.6064 2.12903 16.492C2.06449 16.3776 2.02312 16.2516 2.00729 16.1212C1.99146 15.9908 2.00147 15.8585 2.03676 15.732C2.94501 12.4622 4.68335 9.48285 7.08298 7.08322C9.4826 4.68359 12.462 2.94525 15.7318 2.03701C15.8583 2.00172 15.9905 1.9917 16.1209 2.00753C16.2513 2.02337 16.3773 2.06473 16.4917 2.12927C16.6062 2.19381 16.7067 2.28026 16.7877 2.38368C16.8687 2.4871 16.9285 2.60546 16.9638 2.73201L21.9638 20.732Z" stroke="currentColor" stroke-width="2" stroke-linecap="round" stroke-linejoin="round"/>
</svg>
